<svg xmlns="http://www.w3.org/2000/svg" viewBox="0 0 16 16" width="16" height="16">
  <!-- SWEETIE-16 Palette Background (dark purple) -->
  <rect width="16" height="16" fill="#1a1c2c"/>
  
  <!-- Pixel art "S" in SWEETIE-16 bright yellow -->
  <!-- Row 2 -->
  <rect x="3" y="2" width="1" height="1" fill="#ffd93d"/>
  <rect x="4" y="2" width="1" height="1" fill="#ffd93d"/>
  <rect x="5" y="2" width="1" height="1" fill="#ffd93d"/>
  <rect x="6" y="2" width="1" height="1" fill="#ffd93d"/>
  <rect x="7" y="2" width="1" height="1" fill="#ffd93d"/>
  <rect x="8" y="2" width="1" height="1" fill="#ffd93d"/>
  
  <!-- Row 3 -->
  <rect x="2" y="3" width="1" height="1" fill="#ffd93d"/>
  <rect x="9" y="3" width="1" height="1" fill="#ffd93d"/>
  
  <!-- Row 4 -->
  <rect x="2" y="4" width="1" height="1" fill="#ffd93d"/>
  
  <!-- Row 5 -->
  <rect x="3" y="5" width="1" height="1" fill="#ffd93d"/>
  <rect x="4" y="5" width="1" height="1" fill="#ffd93d"/>
  <rect x="5" y="5" width="1" height="1" fill="#ffd93d"/>
  <rect x="6" y="5" width="1" height="1" fill="#ffd93d"/>
  
  <!-- Row 6 -->
  <rect x="7" y="6" width="1" height="1" fill="#ffd93d"/>
  <rect x="8" y="6" width="1" height="1" fill="#ffd93d"/>
  
  <!-- Row 7 -->
  <rect x="9" y="7" width="1" height="1" fill="#ffd93d"/>
  
  <!-- Row 8 -->
  <rect x="9" y="8" width="1" height="1" fill="#ffd93d"/>
  
  <!-- Row 9 -->
  <rect x="9" y="9" width="1" height="1" fill="#ffd93d"/>
  
  <!-- Row 10 -->
  <rect x="2" y="10" width="1" height="1" fill="#ffd93d"/>
  <rect x="9" y="10" width="1" height="1" fill="#ffd93d"/>
  
  <!-- Row 11 -->
  <rect x="3" y="11" width="1" height="1" fill="#ffd93d"/>
  <rect x="4" y="11" width="1" height="1" fill="#ffd93d"/>
  <rect x="5" y="11" width="1" height="1" fill="#ffd93d"/>
  <rect x="6" y="11" width="1" height="1" fill="#ffd93d"/>
  <rect x="7" y="11" width="1" height="1" fill="#ffd93d"/>
  <rect x="8" y="11" width="1" height="1" fill="#ffd93d"/>
</svg> 